# xmcd
#
# Track frame offsets: 
#        150
#        13472
#        26900
#        39615
#        48930
#        61355
#        74405
#        86245
#        99047
#        112420
#        123787
#        133817
#        144012
#        158147
#        170297
#        182762
#        199180
#        209980
#        223042
#        234242
#        247345
#
# Disc length: 3472 seconds
#
# Revision: 0
# Processed by: cddbd v1.5.2PL0 Copyright (c) Steve Scherf et al.
# Submitted via: ExactAudioCopy v0.95b4
#
DISCID=410d8e15
DTITLE=Tammy Wynette - Tears Of Fire: The 25th Anniversary Collection
DYEAR=1992
DGENRE=Country
TTITLE0=You Can Steal Me
TTITLE1=Apartment #9
TTITLE2=She Didn't Color Daddy
TTITLE3=Your Good Girl's Gonna Go Bad
TTITLE4=Walk Through This World With Me
TTITLE5=My Elusive Dream (with David Houston)
TTITLE6=I Don't Wanna Play House
TTITLE7=Take Me To Your World
TTITLE8=D-I-V-O-R-C-E
TTITLE9=Sweet Dreams
TTITLE10=Lonely Street
TTITLE11=I Believe
TTITLE12=He
TTITLE13=Stand By Your Man
TTITLE14=You'll Never Walk Alone
TTITLE15=How Great thou Art
TTITLE16=Singing My Song
TTITLE17=Too Far Gone
TTITLE18=The Ways To Love A Man
TTITLE19=I'll See Him Through
TTITLE20=Kids (Say The Darndest Things)
EXTD=
EXTT0=
EXTT1=
EXTT2=
EXTT3=
EXTT4=
EXTT5=
EXTT6=
EXTT7=
EXTT8=
EXTT9=
EXTT10=
EXTT11=
EXTT12=
EXTT13=
EXTT14=
EXTT15=
EXTT16=
EXTT17=
EXTT18=
EXTT19=
EXTT20=
PLAYORDER=
